:SAMPLES-PER-SECOND 30
:FULLY-SPECIFIED
:DEGREES
115
root  -43.5984 40.3615 -11.8493 11.2134 -49.1458 -4.28416
RightUpLeg  -8.5274 -21.1546 -7.40842
RightLeg  14.4882 -8.60084 0.969932
RightFoot  -5.11683 -0.4739 8.06123
RightToes  5.82063e-011 0 -3.6325e-017
Spine  24.1864 5.06603 5.40373
Spine1  4.88629 8.85441 -10.6479
HEad  -41.3285 -25.2897 24.7487
LeftShoulder1  8.92297 -14.6949 -42.6058
LeftArm  -9.06849 19.5272 -19.5194
LeftForeArm  20.1393 -3.65574 -4.98093
LeftHand  -0.244104 0.0205437 5.32207
RightShoulder  6.07361 11.0689 35.7137
RightArm  -34.4237 25.1482 13.8604
RightForeArm  -54.2931 0.0468092 3.56083
RightHand  -2.88031 5.87025 -24.7747
LeftUpLeg  -25.5249 -1.89054 -2.68691
LeftLeg  14.6657 -6.86614 -1.9053
LeftFoot  5.90145 -1.36376 8.73878
LeftToes  -1.33699e-010 -8.10125e-011 -3.35536e-011
116
root  -43.4858 40.3736 -11.6556 10.7692 -50.8147 -3.6882
RightUpLeg  -8.81637 -20.6011 -8.12468
RightLeg  14.3638 -7.77795 0.877394
RightFoot  -4.79433 -0.507875 8.29384
RightToes  5.82063e-011 0 -3.6325e-017
Spine  23.8517 4.51077 4.36487
Spine1  5.23871 7.87837 -9.68814
HEad  -40.6254 -25.1765 25.6901
LeftShoulder1  8.75391 -14.5967 -41.9846
LeftArm  -8.46481 23.2628 -21.5901
LeftForeArm  23.232 -4.01475 -5.04051
LeftHand  -0.244104 0.0205437 5.32207
RightShoulder  5.68635 10.8167 33.7503
RightArm  -33.0149 20.6437 8.20488
RightForeArm  -20.2419 4.49242 3.76454
RightHand  0.377629 -3.06159 1.06483
LeftUpLeg  -25.0866 -1.22696 -3.371
LeftLeg  14.0421 -6.10876 -1.79422
LeftFoot  6.00473 -1.40246 8.93413
LeftToes  -1.33699e-010 -8.10125e-011 -3.35536e-011
117
root  -43.3434 40.3864 -11.4343 10.0166 -52.9074 -2.91162
RightUpLeg  -8.92965 -19.2271 -9.17327
RightLeg  13.8376 -7.30624 0.945669
RightFoot  -4.42171 -0.540545 8.42713
RightToes  5.82063e-011 0 -3.6325e-017
Spine  23.1264 3.9573 3.68745
Spine1  6.33259 7.19372 -9.38101
HEad  -40.2141 -25.9244 26.7504
LeftShoulder1  8.47724 -14.5414 -40.6871
LeftArm  -8.84839 25.4535 -24.9567
LeftForeArm  26.9859 -4.41438 -4.92048
LeftHand  -0.244104 0.0205437 5.32207
RightShoulder  5.03977 9.85487 31.7778
RightArm  -31.2428 16.4782 5.02079
RightForeArm  -3.88756 14.3709 4.38595
RightHand  -0.0493616 3.39941 0.303675
LeftUpLeg  -24.4086 -0.482617 -4.10514
LeftLeg  13.243 -4.9794 -1.73248
LeftFoot  6.05106 -1.44346 9.17476
LeftToes  -1.33699e-010 -8.10125e-011 -3.35536e-011
118
root  -43.201 40.405 -11.1718 9.34875 -55.4904 -2.30365
RightUpLeg  -9.12485 -17.5383 -10.0903
RightLeg  13.1233 -6.48565 0.990384
RightFoot  -3.81097 -0.587443 8.51518
RightToes  5.82063e-011 0 -3.6325e-017
Spine  22.1604 3.41067 3.05472
Spine1  7.52005 6.54813 -9.14272
HEad  -39.6824 -26.7386 27.3242
LeftShoulder1  8.24263 -14.3757 -39.8607
LeftArm  -9.66541 26.3674 -28.4185
LeftForeArm  29.8374 -4.89728 -4.80004
LeftHand  -0.244104 0.0205437 5.32207
RightShoulder  4.45698 8.56326 30.9995
RightArm  -27.21 14.394 2.23528
RightForeArm  -6.95416 26.0774 5.87441
RightHand  -1.34204 6.27092 -13.7615
LeftUpLeg  -23.6473 0.419584 -4.59839
LeftLeg  12.429 -3.4568 -1.78023
LeftFoot  5.86948 -1.45457 9.35279
LeftToes  -1.33699e-010 -8.10125e-011 -3.35536e-011
119
root  -43.0822 40.4218 -10.8763 8.75723 -58.6091 -1.9088
RightUpLeg  -9.36322 -15.9956 -10.7825
RightLeg  12.4992 -5.00519 0.922691
RightFoot  -3.23737 -0.644587 8.76925
RightToes  5.82063e-011 0 -3.6325e-017
Spine  21.2173 2.93818 1.89861
Spine1  8.34279 5.68104 -8.23431
HEad  -38.5624 -27.1221 26.8037
LeftShoulder1  8.16911 -14.0976 -40.1552
LeftArm  -10.6114 26.4057 -31.2144
LeftForeArm  30.8041 -5.50906 -4.72488
LeftHand  -0.244104 0.0205437 5.32207
RightShoulder  4.23671 7.79116 31.5646
RightArm  -27.8598 14.2738 -1.06573
RightForeArm  -9.24493 35.4643 8.50091
RightHand  -2.15889 5.42972 -23.3651
LeftUpLeg  -22.8392 1.55759 -4.81933
LeftLeg  11.8312 -1.6279 -1.93293
LeftFoot  5.33913 -1.39998 9.30495
LeftToes  -1.33699e-010 -8.10125e-011 -3.35536e-011
120
root  -42.9834 40.4275 -10.5881 8.11618 -62.0559 -1.53441
RightUpLeg  -9.56503 -14.3982 -11.4151
RightLeg  11.7645 -3.2287 0.865564
RightFoot  -2.94959 -0.704816 9.31367
RightToes  5.82063e-011 0 -3.6325e-017
Spine  20.2513 2.6028 0.212853
Spine1  9.07716 4.70633 -6.75038
HEad  -37.332 -26.9098 25.5055
LeftShoulder1  8.21845 -13.9188 -40.8704
LeftArm  -11.5507 25.241 -33.5083
LeftForeArm  30.6303 -5.87155 -4.65491
LeftHand  -0.244104 0.0205437 5.32207
RightShoulder  4.14913 7.42368 32.0237
RightArm  -31.009 14.4959 -2.41961
RightForeArm  -6.05127 43.2311 10.9173
RightHand  -1.49488 2.42907 -22.018
LeftUpLeg  -22.1212 2.74759 -4.89457
LeftLeg  11.5536 0.463817 -2.0852
LeftFoot  4.50736 -1.2843 9.00914
LeftToes  -1.33699e-010 -8.10125e-011 -3.35536e-011
121
root  -42.8967 40.4213 -10.3388 7.33588 -65.5288 -0.998566
RightUpLeg  -9.79365 -12.8496 -12.026
RightLeg  10.8662 -1.26181 0.863668
RightFoot  -2.97071 -0.753018 9.99033
RightToes  5.82063e-011 0 -3.6325e-017
Spine  19.2259 2.32002 -1.54201
Spine1  9.90857 3.82761 -5.43231
HEad  -36.6558 -26.0812 24.2025
LeftShoulder1  8.29326 -13.9095 -41.2978
LeftArm  -12.1399 22.5159 -35.0882
LeftForeArm  30.639 -5.89665 -4.61278
LeftHand  -0.244104 0.0205437 5.32207
RightShoulder  4.01157 7.11311 31.841
RightArm  -34.3836 13.8213 -0.61784
RightForeArm  -2.53021 51.8074 14.6109
RightHand  -1.10194 1.34803 -19.0943
LeftUpLeg  -21.6067 3.6521 -4.88017
LeftLeg  11.6032 2.88742 -2.14715
LeftFoot  3.38429 -1.11224 8.42957
LeftToes  -1.33699e-010 -8.10125e-011 -3.35536e-011
122
root  -42.8305 40.4189 -10.1251 6.20822 -68.8215 -0.176254
RightUpLeg  -9.9596 -11.7483 -12.5984
RightLeg  10.0529 0.738989 0.850159
RightFoot  -3.10014 -0.78177 10.5288
RightToes  5.82063e-011 0 -3.6325e-017
Spine  18.4357 1.95734 -3.06708
Spine1  10.4924 3.05983 -4.71712
HEad  -36.3303 -24.7621 23.2124
LeftShoulder1  8.35742 -13.9317 -41.5856
LeftArm  -12.4775 18.7293 -35.2776
LeftForeArm  31.1514 -6.26316 -4.56069
LeftHand  -0.244104 0.0205437 5.32207
RightShoulder  4.03518 7.11235 32.0632
RightArm  -35.5254 12.264 2.7355
RightForeArm  -0.24036 60.7218 20.7466
RightHand  -1.20862 1.49471 -20.3659
LeftUpLeg  -21.0546 4.222 -4.79282
LeftLeg  11.7815 5.48281 -2.13496
LeftFoot  1.95879 -0.873876 7.37398
LeftToes  -1.33699e-010 -8.10125e-011 -3.35536e-011
123
root  -42.7958 40.4345 -9.92955 4.72672 -71.8468 0.835144
RightUpLeg  -9.8858 -11.1794 -13.1135
RightLeg  9.32934 2.50752 0.854773
RightFoot  -2.936 -0.818676 10.8364
RightToes  5.82063e-011 0 -3.6325e-017
Spine  17.9585 1.52795 -4.31354
Spine1  10.6735 2.34998 -4.38987
HEad  -35.8522 -23.2104 22.473
LeftShoulder1  8.38343 -13.8686 -41.8881
LeftArm  -13.525 14.7504 -34.2073
LeftForeArm  31.5372 -7.73631 -4.28833
LeftHand  -0.244104 0.0205437 5.32207
RightShoulder  4.35927 7.61224 33.2656
RightArm  -34.6986 9.94605 6.37833
RightForeArm  6.40848 67.839 29.0394
RightHand  -1.46263 1.94847 -23.0625
LeftUpLeg  -20.2177 4.65284 -4.60281
LeftLeg  11.8554 7.92347 -2.15418
LeftFoot  0.419968 -0.614688 5.93529
LeftToes  -1.33699e-010 -8.10125e-011 -3.35536e-011
124
root  -42.7873 40.4689 -9.75751 3.27605 -74.5779 1.7755
RightUpLeg  -9.67166 -10.9461 -13.4948
RightLeg  8.44034 4.29881 0.967457
RightFoot  -2.17405 -0.896342 10.9641
RightToes  5.82063e-011 0 -3.6325e-017
Spine  17.4222 1.14521 -5.38907
Spine1  10.7675 1.71526 -4.054
HEad  -35.3346 -21.8004 21.707
LeftShoulder1  8.30483 -13.7106 -41.8747
LeftArm  -15.9107 11.0002 -32.8292
LeftForeArm  31.0003 -10.515 -3.64814
LeftHand  -0.244104 0.0205437 5.32207
RightShoulder  4.77396 8.23464 34.7148
RightArm  -32.7731 6.76999 10.8712
RightForeArm  17.4788 72.4013 37.9592
RightHand  -1.99683 3.77435 -25.1309
LeftUpLeg  -19.2319 4.84281 -4.25456
LeftLeg  11.6552 10.2724 -2.2667
LeftFoot  -0.701482 -0.447134 4.85616
LeftToes  -1.33699e-010 -8.10125e-011 -3.35536e-011
125
root  -42.7893 40.5156 -9.62184 2.42894 -77.0187 2.23317
RightUpLeg  -9.48423 -10.8196 -13.622
RightLeg  7.25306 6.3804 1.16179
RightFoot  -0.964501 -1.00681 10.9838
RightToes  5.82063e-011 0 -3.6325e-017
Spine  16.6938 0.890818 -6.31407
Spine1  10.8364 1.19066 -3.47762
HEad  -34.9893 -20.5609 20.7354
LeftShoulder1  8.13947 -13.4988 -41.5284
LeftArm  -19.3572 7.5432 -31.5638
LeftForeArm  29.3991 -14.4503 -2.86241
LeftHand  -0.244104 0.0205437 5.32207
RightShoulder  5.0687 8.64469 35.7494
RightArm  -30.0443 2.8426 16.3974
RightForeArm  25.8307 74.3901 43.6144
RightHand  -2.78228 6.44629 -27.1213
LeftUpLeg  -18.3713 4.6431 -3.74946
LeftLeg  11.1569 12.75 -2.42151
LeftFoot  -0.942048 -0.444 4.93778
LeftToes  -1.33699e-010 -8.10125e-011 -3.35536e-011
126
root  -42.789 40.5541 -9.52094 2.23775 -79.1689 2.12202
RightUpLeg  -9.33169 -10.7173 -13.5558
RightLeg  6.06884 8.29045 1.32267
RightFoot  0.0946894 -1.11235 11.082
RightToes  5.82063e-011 0 -3.6325e-017
Spine  16.1019 0.75932 -7.05206
Spine1  10.5727 0.771984 -2.73422
HEad  -34.6781 -19.4846 19.6542
LeftShoulder1  7.98394 -13.2673 -41.2795
LeftArm  -24.3544 4.44821 -29.9869
LeftForeArm  28.3944 -19.3728 -2.77513
LeftHand  -0.244104 0.0205437 5.32207
RightShoulder  5.26972 8.89298 36.5146
RightArm  -27.1047 -1.65543 22.0937
RightForeArm  25.2481 73.6513 40.7064
RightHand  -2.93973 6.808 -27.7405
LeftUpLeg  -17.7176 4.3599 -3.23339
LeftLeg  10.588 15.1447 -2.56622
LeftFoot  -0.445135 -0.583502 6.13323
LeftToes  -1.33699e-010 -8.10125e-011 -3.35536e-011
127
root  -42.7775 40.5663 -9.44358 1.90805 -81.0701 2.15382
RightUpLeg  -9.22873 -10.6672 -13.5037
RightLeg  5.24584 9.68095 1.41203
RightFoot  0.646381 -1.19429 11.3821
RightToes  5.82063e-011 0 -3.6325e-017
Spine  15.7648 0.658814 -7.73429
Spine1  10.072 0.414955 -2.09455
HEad  -34.3211 -18.4756 18.8323
LeftShoulder1  7.80399 -12.9665 -41.069
LeftArm  -30.1298 1.74883 -28.0397
LeftForeArm  28.278 -25.2708 -3.90554
LeftHand  -0.244104 0.0205437 5.32207
RightShoulder  5.41236 9.03715 37.1451
RightArm  -24.4281 -6.06015 27.5002
RightForeArm  17.5215 69.3717 30.425
RightHand  -2.34295 4.91241 -26.2308
LeftUpLeg  -17.1896 4.22837 -2.84197
LeftLeg  10.1294 17.2954 -2.72594
LeftFoot  0.258361 -0.780826 7.65988
LeftToes  -1.33699e-010 -8.10125e-011 -3.35536e-011
128
root  -42.7452 40.5604 -9.38063 0.56424 -82.8571 3.21033
RightUpLeg  -9.32855 -10.5719 -13.4994
RightLeg  4.81832 11.1403 1.4022
RightFoot  0.981606 -1.24806 11.5874
RightToes  5.82063e-011 0 -3.6325e-017
Spine  15.3976 0.496583 -8.67609
Spine1  9.88803 0.00117272 -1.53684
HEad  -34.1601 -17.1417 18.3795
LeftShoulder1  7.46537 -12.4687 -40.4607
LeftArm  -34.0716 -0.552415 -26.2129
LeftForeArm  27.2752 -32.1455 -5.53494
LeftHand  -0.244104 0.0205437 5.32207
RightShoulder  5.42394 9.01103 37.3206
RightArm  -21.0108 -8.52514 32.5177
RightForeArm  7.61921 59.3807 19.0444
RightHand  -2.21209 4.89897 -24.8907
LeftUpLeg  -16.7156 4.07348 -2.57732
LeftLeg  9.71257 19.4415 -2.89629
LeftFoot  0.8362 -0.958035 8.91566
LeftToes  -1.33699e-010 -8.10125e-011 -3.35536e-011
129
root  -42.6838 40.5558 -9.32447 -1.32074 -84.602 4.78792
RightUpLeg  -9.66135 -10.2585 -13.3535
RightLeg  4.64624 12.8337 1.25425
RightFoot  1.46493 -1.2635 11.3163
RightToes  5.82063e-011 0 -3.6325e-017
Spine  14.9506 0.311891 -9.84498
Spine1  10.1729 -0.526514 -0.701126
HEad  -34.3162 -15.3844 17.7306
LeftShoulder1  7.04233 -11.8134 -39.7426
LeftArm  -36.2559 -2.32316 -24.4776
LeftForeArm  26.9271 -39.6817 -7.58703
LeftHand  -0.244104 0.0205437 5.32207
RightShoulder  5.34838 8.94383 36.9606
RightArm  -14.5527 -7.65571 36.6097
RightForeArm  -1.4726 41.9825 10.0917
RightHand  -2.57076 6.90877 -24.257
LeftUpLeg  -16.2736 3.96828 -2.33906
LeftLeg  9.33803 21.4739 -3.00247
LeftFoot  1.24217 -1.09188 9.80981
LeftToes  -1.33699e-010 -8.10125e-011 -3.35536e-011
